<?xml version="1.0" standalone="no"?>
<!DOCTYPE svg PUBLIC "-//W3C//DTD SVG 20010904//EN"
 "http://www.w3.org/TR/2001/REC-SVG-20010904/DTD/svg10.dtd">
<svg version="1.0" xmlns="http://www.w3.org/2000/svg"
 width="1000.000000pt" height="750.000000pt" viewBox="0 0 1000.000000 750.000000"
 preserveAspectRatio="xMidYMid meet">

<g transform="translate(0.000000,750.000000) scale(0.100000,-0.100000)"
fill="#000000" stroke="none">
<path d="M0 3750 l0 -3750 5000 0 5000 0 0 3750 0 3750 -5000 0 -5000 0 0
-3750z m7880 2225 l0 -675 -125 0 -125 0 0 545 0 545 -2635 0 -2635 0 0 -545
0 -545 -125 0 -125 0 0 675 0 675 2885 0 2885 0 0 -675z m-4767 -882 c13 -130
24 -115 -120 -147 -71 -16 -136 -32 -145 -35 -14 -5 45 -104 315 -538 183
-293 334 -533 337 -533 8 0 641 1062 637 1067 -2 2 -75 17 -163 35 -87 17
-160 32 -162 34 -2 1 0 43 3 93 l8 91 436 -2 436 -3 3 -91 3 -91 -118 -32
-118 -32 -432 -670 -433 -669 1 -282 c0 -268 13 -685 20 -693 2 -2 78 -17 168
-34 91 -17 165 -32 166 -34 1 -1 0 -44 -3 -95 l-4 -92 -545 0 c-426 0 -544 3
-548 13 -2 6 -6 49 -10 94 l-6 81 28 6 c15 3 92 17 170 32 l141 26 6 32 c3 17
9 229 12 471 l7 440 -429 687 -429 687 -117 32 -118 33 0 87 c0 47 3 89 7 92
3 4 228 7 498 7 l492 0 6 -67z m3938 56 c435 -44 697 -223 799 -544 34 -106
40 -338 11 -457 -77 -324 -326 -553 -701 -645 -90 -22 -128 -26 -270 -27 -91
-1 -200 3 -244 7 l-79 9 6 -409 c4 -224 10 -426 14 -448 l8 -39 195 -31 195
-30 -3 -80 c-2 -44 -6 -88 -8 -97 -5 -17 -40 -18 -550 -18 -427 0 -545 3 -548
12 -3 7 -7 49 -10 93 l-6 81 139 32 c100 24 141 38 147 50 10 23 17 1971 7
2151 l-8 145 -147 35 -148 35 0 40 c0 23 3 65 6 94 l7 52 542 0 c309 0 588 -5
646 -11z m-4691 -3494 l0 -545 2635 0 2635 0 0 545 0 545 125 0 125 0 0 -675
0 -675 -2885 0 -2885 0 0 675 0 675 125 0 125 0 0 -545z"/>
<path d="M6577 4943 c-10 -9 -9 -1203 1 -1203 4 0 41 -7 82 -16 96 -20 284
-20 380 0 211 44 353 180 395 381 30 144 15 365 -35 498 -68 180 -256 311
-485 338 -93 10 -328 12 -338 2z"/>
</g>
</svg>
