<?xml version="1.0" encoding="UTF-8"?>
<!DOCTYPE svg PUBLIC "-//W3C//DTD SVG 1.1//EN" "http://www.w3.org/Graphics/SVG/1.1/DTD/svg11.dtd">
<svg xmlns="http://www.w3.org/2000/svg" version="1.1" width="1000px" height="750px" style="shape-rendering:geometricPrecision; text-rendering:geometricPrecision; image-rendering:optimizeQuality; fill-rule:evenodd; clip-rule:evenodd" xmlns:xlink="http://www.w3.org/1999/xlink">
<g><path style="opacity:1" fill="#000000" d="M -0.5,-0.5 C 332.833,-0.5 666.167,-0.5 999.5,-0.5C 999.5,249.5 999.5,499.5 999.5,749.5C 666.167,749.5 332.833,749.5 -0.5,749.5C -0.5,499.5 -0.5,249.5 -0.5,-0.5 Z"/></g>
<g><path style="opacity:1" fill="#fafafa" d="M 210.5,84.5 C 402.833,84.5 595.167,84.5 787.5,84.5C 787.5,129.5 787.5,174.5 787.5,219.5C 779.167,219.5 770.833,219.5 762.5,219.5C 762.5,183.167 762.5,146.833 762.5,110.5C 586.833,110.5 411.167,110.5 235.5,110.5C 235.5,146.833 235.5,183.167 235.5,219.5C 227.167,219.5 218.833,219.5 210.5,219.5C 210.5,174.5 210.5,129.5 210.5,84.5 Z"/></g>
<g><path style="opacity:1" fill="#b9b9b9" d="M 310.5,234.5 C 277.5,234.5 244.5,234.5 211.5,234.5C 211.802,237.059 211.468,239.393 210.5,241.5C 210.5,238.833 210.5,236.167 210.5,233.5C 244.004,233.168 277.338,233.502 310.5,234.5 Z"/></g>
<g><path style="opacity:1" fill="#b9b9b9" d="M 381.5,234.5 C 410.662,233.502 439.995,233.169 469.5,233.5C 469.5,234.833 469.5,236.167 469.5,237.5C 468.596,236.791 468.263,235.791 468.5,234.5C 439.5,234.5 410.5,234.5 381.5,234.5 Z"/></g>
<g><path style="opacity:1" fill="#fdfdfd" d="M 310.5,234.5 C 311.363,240.455 311.697,246.455 311.5,252.5C 301.694,253.933 292.027,256.099 282.5,259C 304.708,294.584 327.042,330.084 349.5,365.5C 370.833,330.167 392.167,294.833 413.5,259.5C 402.645,256.529 391.645,254.196 380.5,252.5C 380.36,246.464 380.693,240.464 381.5,234.5C 410.5,234.5 439.5,234.5 468.5,234.5C 468.263,235.791 468.596,236.791 469.5,237.5C 469.5,242.5 469.5,247.5 469.5,252.5C 461.191,253.909 453.191,256.242 445.5,259.5C 417.197,303.635 388.697,347.635 360,391.5C 359.346,424.522 359.846,457.522 361.5,490.5C 372.617,492.031 383.617,494.031 394.5,496.5C 394.5,501.5 394.5,506.5 394.5,511.5C 393.596,512.209 393.263,513.209 393.5,514.5C 357.5,514.5 321.5,514.5 285.5,514.5C 285.737,513.209 285.404,512.209 284.5,511.5C 284.041,506.435 284.041,501.435 284.5,496.5C 295.392,494.325 306.226,491.991 317,489.5C 319.277,457.878 319.944,426.212 319,394.5C 290.833,349.5 262.667,304.5 234.5,259.5C 226.611,256.759 218.611,254.425 210.5,252.5C 210.5,248.833 210.5,245.167 210.5,241.5C 211.468,239.393 211.802,237.059 211.5,234.5C 244.5,234.5 277.5,234.5 310.5,234.5 Z"/></g>
<g><path style="opacity:1" fill="#fcfcfc" d="M 695.5,495.5 C 697.242,498.145 697.909,501.145 697.5,504.5C 697.5,506.167 697.5,507.833 697.5,509.5C 696.549,510.919 696.216,512.585 696.5,514.5C 659.612,515.15 622.946,514.484 586.5,512.5C 586.528,507.138 586.194,501.805 585.5,496.5C 594.835,494.5 604.168,492.5 613.5,490.5C 614.255,480.866 614.755,471.2 615,461.5C 615.807,396.66 615.64,331.827 614.5,267C 614.432,264.05 613.766,261.383 612.5,259C 603.223,256.511 593.889,254.344 584.5,252.5C 584.295,246.122 584.628,239.789 585.5,233.5C 623.501,233.333 661.501,233.5 699.5,234C 722.613,235.02 743.613,242.02 762.5,255C 785.268,276.874 793.101,303.374 786,334.5C 775.513,368.984 752.68,390.484 717.5,399C 697.259,403.06 676.926,403.56 656.5,400.5C 655.989,430.549 656.656,460.549 658.5,490.5C 670.87,491.921 683.203,493.588 695.5,495.5 Z"/></g>
<g><path style="opacity:1" fill="#595959" d="M 689.5,255.5 C 678.833,255.5 668.167,255.5 657.5,255.5C 657.824,262.354 657.491,269.021 656.5,275.5C 656.5,268.5 656.5,261.5 656.5,254.5C 667.679,254.172 678.679,254.505 689.5,255.5 Z"/></g>
<g><path style="opacity:1" fill="#000000" d="M 689.5,255.5 C 721.957,258.477 740.124,276.144 744,308.5C 746.381,326.218 743.381,342.885 735,358.5C 725.478,369.846 713.311,376.346 698.5,378C 684.346,379.197 670.346,378.363 656.5,375.5C 656.5,342.167 656.5,308.833 656.5,275.5C 657.491,269.021 657.824,262.354 657.5,255.5C 668.167,255.5 678.833,255.5 689.5,255.5 Z"/></g>
<g><path style="opacity:1" fill="#616161" d="M 695.5,495.5 C 696.5,495.5 697.5,495.5 698.5,495.5C 698.81,498.713 698.477,501.713 697.5,504.5C 697.909,501.145 697.242,498.145 695.5,495.5 Z"/></g>
<g><path style="opacity:1" fill="#bbbbbb" d="M 284.5,511.5 C 285.404,512.209 285.737,513.209 285.5,514.5C 321.5,514.5 357.5,514.5 393.5,514.5C 393.263,513.209 393.596,512.209 394.5,511.5C 394.5,512.833 394.5,514.167 394.5,515.5C 357.833,515.5 321.167,515.5 284.5,515.5C 284.5,514.167 284.5,512.833 284.5,511.5 Z"/></g>
<g><path style="opacity:1" fill="#b7b7b7" d="M 697.5,509.5 C 697.5,511.5 697.5,513.5 697.5,515.5C 660.5,515.5 623.5,515.5 586.5,515.5C 586.5,514.5 586.5,513.5 586.5,512.5C 622.946,514.484 659.612,515.15 696.5,514.5C 696.216,512.585 696.549,510.919 697.5,509.5 Z"/></g>
<g><path style="opacity:1" fill="#fafafa" d="M 210.5,529.5 C 218.833,529.5 227.167,529.5 235.5,529.5C 235.5,565.833 235.5,602.167 235.5,638.5C 411.167,638.5 586.833,638.5 762.5,638.5C 762.5,602.167 762.5,565.833 762.5,529.5C 770.833,529.5 779.167,529.5 787.5,529.5C 787.5,574.5 787.5,619.5 787.5,664.5C 595.167,664.5 402.833,664.5 210.5,664.5C 210.5,619.5 210.5,574.5 210.5,529.5 Z"/></g>
</svg>
